<svg width="512" height="512" viewBox="0 0 512 512" fill="none" xmlns="http://www.w3.org/2000/svg">
  <defs>
    <linearGradient id="markGradient" x1="0" y1="0" x2="1" y2="1">
      <stop offset="0%" stop-color="#FF6A3A"/>
      <stop offset="100%" stop-color="#FFB23A"/>
    </linearGradient>
    <filter id="markGlow" x="-50%" y="-50%" width="200%" height="200%">
      <feGaussianBlur stdDeviation="12" result="blur"/>
      <feMerge>
        <feMergeNode in="blur"/>
        <feMergeNode in="SourceGraphic"/>
      </feMerge>
    </filter>
  </defs>

  <!-- Background circle with gradient -->
  <circle cx="256" cy="256" r="240" fill="url(#markGradient)" opacity="0.15" filter="url(#markGlow)"/>
  
  <!-- PZ monogram as paths -->
  <g filter="url(#markGlow)" fill="url(#markGradient)" stroke="#D6472E" stroke-width="6" stroke-linejoin="round">
    <!-- P -->
    <path d="M140 180 Q145 175 150 175 L220 175 Q250 175 265 195 Q275 210 275 235 Q275 260 265 275 Q250 295 220 295 L180 295 L180 360 Q180 365 177 368 Q174 371 170 371 Q166 371 163 368 Q160 365 160 360 Z M180 210 L180 260 L220 260 Q232 260 240 250 Q244 240 244 235 Q244 230 240 220 Q232 210 220 210 Z"/>
    
    <!-- Z -->
    <path d="M300 195 Q300 185 305 182 Q310 180 320 180 L400 180 Q406 180 410 185 Q414 190 414 198 Q414 202 412 206 L335 345 L405 345 Q411 345 415 350 Q419 355 419 363 Q419 371 415 376 Q411 380 405 380 L315 380 Q309 380 305 376 Q301 371 301 363 Q301 359 303 355 L380 216 L315 216 Q309 216 304 211 Q300 206 300 198 Z"/>
  </g>
</svg>
